<?xml version="1.0" encoding="utf-8" ?>
<svg baseProfile="full" height="200mm" version="1.1" viewBox="0,0,200,200" width="200mm" xmlns="http://www.w3.org/2000/svg" xmlns:ev="http://www.w3.org/2001/xml-events" xmlns:xlink="http://www.w3.org/1999/xlink"><defs /><rect fill="#1a1a1a" height="200" width="200" x="0" y="0" /><text alignment-baseline="middle" fill="#e1ed5e" style="dominant-baseline: central; font-size:9.0px; font-family:Arial;" text-anchor="middle" x="100.0" y="100.0">2024</text><line stroke="#e1ed5e" stroke-width="0.3" x1="100.0" x2="100.0" y1="15.0" y2="10.0" /><path d="M 100.0 14.0 a86.0,86.0 0 0,1 42.35913384403234,11.155469271406648" fill="none" id="id1" stroke="none" /><text fill="#e1ed5e" style="font-size:6.75px; font-family:Arial;" text-anchor="middle"><textPath startOffset="22.145653131862478" xlink:href="#id1">January</textPath></text><line stroke="#e1ed5e" stroke-width="0.3" x1="143.13028292997686" x2="145.6673583964461" y1="26.7553504044142" y2="22.446841604673864" /><path d="M 143.63769802327073 25.89364864446614 a86.0,86.0 0 0,1 29.32050498858742,28.57503671076993" fill="none" id="id2" stroke="none" /><text fill="#e1ed5e" style="font-size:6.75px; font-family:Arial;" text-anchor="middle"><textPath startOffset="20.669276256404974" xlink:href="#id2">February</textPath></text><line stroke="#e1ed5e" stroke-width="0.3" x1="172.87174338648825" x2="177.1583165268699" y1="56.24261187166439" y2="53.66864786411523" /><path d="M 173.72905801456457 55.72781907015455 a86.0,86.0 0 0,1 12.242430191666344,42.057860355516425" fill="none" id="id3" stroke="none" /><text fill="#e1ed5e" style="font-size:6.75px; font-family:Arial;" text-anchor="middle"><textPath startOffset="22.145653131862474" xlink:href="#id3">March</textPath></text><line stroke="#e1ed5e" stroke-width="0.3" x1="184.99686870605535" x2="189.99668451229388" y1="99.2704041080226" y2="99.22748670261217" /><path d="M 185.99683186730306 99.26182062694052 a86.0,86.0 0 0,1 -10.086455211305974,41.156179273409016" fill="none" id="id4" stroke="none" /><text fill="#e1ed5e" style="font-size:6.75px; font-family:Arial;" text-anchor="middle"><textPath startOffset="21.40746469413373" xlink:href="#id4">April</textPath></text><line stroke="#e1ed5e" stroke-width="0.3" x1="174.33088141563837" x2="178.70328620479359" y1="141.23008692659167" y2="143.65538615756765" /><path d="M 175.20536237346943 141.71514677278685 a86.0,86.0 0 0,1 -30.301960400862466,31.631185727798858" fill="none" id="id5" stroke="none" /><text fill="#e1ed5e" style="font-size:6.75px; font-family:Arial;" text-anchor="middle"><textPath startOffset="22.145653131862474" xlink:href="#id5">May</textPath></text><line stroke="#e1ed5e" stroke-width="0.3" x1="143.1302829299769" x2="145.66735839644613" y1="173.24464959558577" y2="177.55315839532614" /><path d="M 143.63769802327073 174.10635135553383 a86.0,86.0 0 0,1 -40.68552437913181,11.842963189579606" fill="none" id="id6" stroke="none" /><text fill="#e1ed5e" style="font-size:6.75px; font-family:Arial;" text-anchor="middle"><textPath startOffset="21.407464694133747" xlink:href="#id6">June</textPath></text><line stroke="#e1ed5e" stroke-width="0.3" x1="101.45913802915013" x2="101.54496967792366" y1="184.9874750549273" y2="189.98673829345242" /><path d="M 101.47630435890484 185.9873277026323 a86.0,86.0 0 0,1 -42.54439059252881,-10.42667462771756" fill="none" id="id7" stroke="none" /><text fill="#e1ed5e" style="font-size:6.75px; font-family:Arial;" text-anchor="middle"><textPath startOffset="22.145653131862474" xlink:href="#id7">July</textPath></text><path d="M 97.48249496171623 120.84855314841334 l -0.7159386847840288 5.928999344088899 a26.97206843753292,26.97206843753292 0 0,0 -0.459195840757016,-0.05945209500700239 l 0.8176123474318389 -5.9158356528814995" fill="#ff1602" stroke="none" /><path d="M 96.41257539226777 120.69131181640829 l -1.6971551366723627 9.788739826899253 a30.934775435643072,30.934775435643072 0 0,0 -0.5224519224962172,-0.09520814406803504 l 1.864941792719637 -9.758163508899852" fill="#ff5107" stroke="none" /><path d="M 94.6519064749342 120.30758222061772 l -2.5313827950297174 9.612072788366305 a30.93981097123202,30.93981097123202 0 0,0 -0.5124496051123463,-0.1396704186355417 l 2.6960138010767585 -9.567201875586617" fill="#ff5207" stroke="none" /><path d="M 93.95794788825049 120.11202640906438 l -3.4190321693920547 11.38084611195828 a32.88332610001988,32.88332610001988 0 0,0 -0.5392229221370731,-0.1670526396484189 l 3.6138957244007615 -11.320476884503213" fill="#ff6e0a" stroke="none" /><path d="M 92.93061703081489 119.77432235084164 l -2.0056947953715776 5.610285309759464 a26.958029277293246,26.958029277293246 0 0,0 -0.4344233122600909,-0.1595262576517768 l 2.1017072592857873 -5.5750282030989675" fill="#ff1602" stroke="none" /><path d="M 92.59220618246901 119.65005319985036 l -2.118610350614137 5.6198656610554725 a27.005947041561374,27.005947041561374 0 0,0 -0.43238802252398933,-0.1672569758649345 l 2.2147706356316545 -5.582668797052497" fill="#ff1702" stroke="none" /><path d="M 91.59046798132341 119.24265499422711 l -4.7880025884051785 10.955886928729042 a32.95643873323786,32.95643873323786 0 0,0 -0.5164534417484757,-0.23100305547151356 l 4.9753694330092895 -10.872080122347674" fill="#ff6f0a" stroke="none" /><path d="M 90.28995756902619 118.62028667847754 l -5.529442747483579 10.603435552654632 a32.958577784042674,32.958577784042674 0 0,0 -0.49941847936433015,-0.2659122104037877 l 5.710650042634471 -10.506952874528272" fill="#ff6f0a" stroke="none" /><path d="M 89.97174638481275 118.45085714620012 l -2.852414627514851 5.248121640472235 a26.973194284505876,26.973194284505876 0 0,0 -0.40492648867547965,-0.22460589742794324 l 2.9420853043464334 -5.198382827611143" fill="#ff1602" stroke="none" /><line stroke="#e1ed5e" stroke-width="0.3" x1="58.13341422392154" x2="55.67067388415222" y1="173.97424548756322" y2="178.32567169271397" /><path d="M 57.64086615596768 174.84453072859336 a86.0,86.0 0 0,1 -31.369924170532247,-30.572349798747897" fill="none" id="id8" stroke="none" /><text fill="#e1ed5e" style="font-size:6.75px; font-family:Arial;" text-anchor="middle"><textPath startOffset="22.145653131862474" xlink:href="#id8">August</textPath></text><path d="M 89.34428304082925 118.09573695890944 l -3.0288381910177224 5.143629415624152 a26.969152733231205,26.969152733231205 0 0,0 -0.39691817586864264,-0.23833796022362727 l 3.1166891234437926 -5.090877454864605" fill="#ff1602" stroke="none" /><path d="M 88.72937992617639 117.7192867562869 l -3.20978825944184 5.0463202755017385 a26.98064285786993,26.98064285786993 0 0,0 -0.38866819597371194,-0.2519300288742365 l 3.2959420876725614 -4.990476404923608" fill="#ff1602" stroke="none" /><path d="M 88.4268655584334 117.5232005979908 l -3.3089644472569657 5.010193917098795 a27.004272545458306,27.004272545458306 0 0,0 -0.3846227693136524,-0.25879136436303896 l 3.394483504667624 -4.952652878678635" fill="#ff1702" stroke="none" /><path d="M 86.96720088162412 116.46651593811092 l -8.627734607286328 10.90086083045342 a34.902034789867265,34.902034789867265 0 0,0 -0.4666056847756707,-0.3758645103719155 l 8.813591062417261 -10.751148026288094" fill="#ff8b0c" stroke="none" /><path d="M 86.68645165197938 116.24036423190432 l -8.827220588635907 10.767773832144877 a34.92353319458325,34.92353319458325 0 0,0 -0.4603681109528453,-0.3840554517161125 l 9.010763033750646 -10.614656196516895" fill="#ff8b0c" stroke="none" /><path d="M 86.13680546590413 115.77377054828092 l -9.17232640262894 10.436423705457571 a34.894261815447436,34.894261815447436 0 0,0 -0.4465385006186923,-0.39929748074626775 l 9.350129930071004 -10.27743069482792" fill="#ff8b0c" stroke="none" /><path d="M 85.86807049272751 115.53346607816431 l -10.698446787501721 11.759467111492683 a36.89785615771145,36.89785615771145 0 0,0 -0.4648606781747648,-0.43026810375160585 l 10.898737236990453 -11.5740812616087" fill="#ffa70f" stroke="none" /><path d="M 85.60350026404147 115.28858382429668 l -13.694821666982218 14.543426030946392 a40.97647068949004,40.97647068949004 0 0,0 -0.5079667977432261,-0.48662070156417436 l 13.942460950590759 -14.306193199076636" fill="#ffde14" stroke="none" /><path d="M 85.08716467003676 114.78537596483092 l -14.120902385947593 14.000211637784357 a40.884813554474505,40.884813554474505 0 0,0 -0.4898647010854321,-0.5026443380384148 l 14.359153888183835 -13.755744607678205" fill="#ffdd14" stroke="none" /><path d="M 84.83555147118756 114.52719865689866 l -14.364351002810485 13.760723325927048 a40.892010611917925,40.892010611917925 0 0,0 -0.4812486604538453,-0.5110694002446854 l 14.598455497000582 -13.512112465737872" fill="#ffdd14" stroke="none" /><path d="M 84.58840730492382 114.26474011684316 l -10.510181756938422 9.728067326319346 a35.321285363726375,35.321285363726375 0 0,0 -0.40804881135524174,-0.4485171233100246 l 10.675628269135544 -9.546212627451649" fill="#ff910d" stroke="none" /><path d="M 84.3458050057657 113.99807769240083 l -14.785173149947271 13.220993000584748 a40.834212890745945,40.834212890745945 0 0,0 -0.4627662323789025,-0.5265430236215971 l 15.009950446284765 -12.965237699151851" fill="#ffdc14" stroke="none" /><path d="M 84.1078160697243 113.72728997021213 l -15.02020675668922 12.974096855801694 a40.84776562329916,40.84776562329916 0 0,0 -0.45380979945252325,-0.5345868026665616 l 15.240711119648855 -12.714343270685578" fill="#ffdc14" stroke="none" /><path d="M 83.8745106332314 113.45245675266167 l -18.655993722298238 15.563493486550648 a45.295440544932205,45.295440544932205 0 0,0 -0.49297223859675154,-0.6013459749232651 l 18.92041278013362 -15.240945229928888" fill="#e8ff1a" stroke="none" /><path d="M 83.64595745247003 113.17365903436017 l -23.226354325815468 18.709506937521237 a50.82464056972828,50.82464056972828 0 0,0 -0.541484678382143,-0.6841482022269996 l 23.54410543483917 -18.308038791379555" fill="#a5ff21" stroke="none" /><path d="M 83.20337586046588 112.60449989151573 l -7.945133168086903 5.962176049383639 a30.933412520502635,30.933412520502635 0 0,0 -0.3150759269293223,-0.4274610069634718 l 8.046311114600055 -5.824908733151288" fill="#ff5107" stroke="none" /><path d="M 82.78059297857968 112.02048342749411 l -16.774671029694293 11.710023165331615 a41.457620357389274,41.457620357389274 0 0,0 -0.40235659600237367,-0.5870502981400146 l 16.973217362511992 -11.420338132121548" fill="#ffe415" stroke="none" /><path d="M 82.576782715395 111.72311816256416 l -16.589914791312932 11.162435055968576 a40.99563025167598,40.99563025167598 0 0,0 -0.3878490400976265,-0.5872528799940971 l 16.779088270331286 -10.876002297635418" fill="#ffde14" stroke="none" /><path d="M 82.37810715431573 111.42229804090323 l -5.003408383861305 3.2431488649537603 a26.96255901572005,26.96255901572005 0 0,0 -0.24841800752546134,-0.39055436896434886 l 5.058344083012655 -3.1567808213107393" fill="#ff1602" stroke="none" /><path d="M 82.18462484594161 111.11811171558189 l -16.939566623427332 10.571542417949257 a40.96763447391888,40.96763447391888 0 0,0 -0.3672105346891756,-0.5998108114717197 l 17.118545122571913 -10.27919449035298" fill="#ffde14" stroke="none" /><path d="M 81.99639281039703 110.81064883170644 l -17.170248463557204 10.310240861056998 a41.02794295261742,41.02794295261742 0 0,0 -0.35738520882522634,-0.60691821645472 l 17.3447073825122 -10.01397147630872" fill="#ffdf14" stroke="none" /><line stroke="#e1ed5e" stroke-width="0.3" x1="26.387840678322732" x2="22.057713659400548" y1="142.50000000000003" y2="145.00000000000006" /><path d="M 25.521815274538298 143.00000000000003 a86.0,86.0 0 0,1 -11.493303480769221,-40.785679425670985" fill="none" id="id9" stroke="none" /><text fill="#e1ed5e" style="font-size:6.75px; font-family:Arial;" text-anchor="middle"><textPath startOffset="21.40746469413373" xlink:href="#id9">September</textPath></text><path d="M 81.63589988554817 110.18625677009913 l -17.54780878954318 9.733473732384128 a41.06654190969088,41.06654190969088 0 0,0 -0.33665696023667846,-0.6194108883718044 l 17.712311099395187 -9.430808010537737" fill="#ffdf14" stroke="none" /><path d="M 81.4637452351635 109.86951160357371 l -8.804629024676535 4.687969032938219 a30.97489578471696,30.97489578471696 0 0,0 -0.24586977103115118,-0.4714877050967273 l 8.883806864682636 -4.536135084736989" fill="#ff5207" stroke="none" /><path d="M 81.29705330413844 109.54985784667822 l -17.81305296412524 9.095471766509785 a41.00081154748746,41.00081154748746 0 0,0 -0.3146911601720593,-0.6295931235951453 l 17.966564037509038 -8.788346786750886" fill="#ffde14" stroke="none" /><path d="M 81.1358732173502 109.22738970284198 l -9.006918477070363 4.405735169575753 a31.026718448078025,31.026718448078025 0 0,0 -0.2299238546647043,-0.480452425774331 l 9.08122158969498 -4.250470241736318" fill="#ff5307" stroke="none" /><path d="M 80.9802524753101 108.90220220490708 l -18.155760030687233 8.497812432427798 a41.04605792739871,41.04605792739871 0 0,0 -0.2932164926461469,-0.6407309535835909 l 18.298960988188437 -8.18489249662952" fill="#ffdf14" stroke="none" /><path d="M 80.83023694016515 108.57439118712176 l -18.26149803811472 8.168135795571034 a41.00501819471696,41.00501819471696 0 0,0 -0.2818921568854706,-0.6450244209164971 l 18.39902407701716 -7.853449304878687" fill="#ffde14" stroke="none" /><path d="M 80.68587082218212 108.24405325689762 l -9.235084955279309 3.941908615312384 a31.04118706442123,31.04118706442123 0 0,0 -0.2049814476544564,-0.49188085349481964 l 9.301392247470252 -3.7827952523762827" fill="#ff5307" stroke="none" /><path d="M 80.5471966667186 107.91128576633889 l -18.49291109253143 7.520905948512233 a40.96376184396715,40.96376184396715 0 0,0 -0.25932270370995747,-0.6536626154771027 l 18.61929247120751 -7.202342315821565" fill="#ffde14" stroke="none" /><path d="M 80.41425534168474 107.57618678355246 l -13.385448747385897 5.177779127678421 a35.351990623739866,35.351990623739866 0 0,0 -0.21408040349616525,-0.567873704555554 l 13.4723598346965 -4.9472371429287225" fill="#ff910d" stroke="none" /><path d="M 80.28708602549918 107.23885506374661 l -18.787373688001345 6.8989838504752115 a41.01402978567093,41.01402978567093 0 0,0 -0.23702169907627005,-0.6629918766755699 l 18.90303555712156 -6.57545701741872" fill="#ffde14" stroke="none" /><path d="M 79.94057633289273 106.21446072829308 l -40.489561559305535 12.543769671145059 a63.388096829505464,63.388096829505464 0 0,0 -0.313087936720122,-1.0421679150084915 l 40.69892581602929 -11.846864152545844" fill="#32ff48" stroke="none" /><path d="M 79.73907114497094 105.5222062557868 l -9.744659730320022 2.6559503420757546 a31.10012205269288,31.10012205269288 0 0,0 -0.1359675406044723,-0.516290898283527 l 9.788816751729227 -2.488278939419425" fill="#ff5407" stroke="none" /><path d="M 79.13060592940153 102.33845913500099 l -9.962699045699821 1.1163412082722828 a31.02504812798796,31.02504812798796 0 0,0 -0.05476306224979422,-0.5297829502214708 l 9.98039450043128 -0.9451537357678805" fill="#ff5307" stroke="none" /><path d="M 79.0935383218832 101.97986365728391 l -20.0614757980831 1.8998426159162145 a41.151233539471605,41.151233539471605 0 0,0 -0.06056359762972823,-0.7038408077098542 l 20.09113301841057 -1.555180760830698" fill="#ffe015" stroke="none" /><path d="M 79.01933749520258 100.90099992219065 l -19.930822904641687 0.8559152925781816 a40.94919278177087,40.94919278177087 0 0,0 -0.024131384661943884,-0.7025589347822955 l 19.942578976300478 -0.5136500932317661" fill="#ffde14" stroke="none" /><path d="M 79.00696218219943 100.54070618675478 l -20.09441452422141 0.5175608383484417 a41.10107868480277,41.10107868480277 0 0,0 -0.01211223032426246,-0.7054766937588478 l 20.100338186144338 -0.17253722862054147" fill="#ffe014" stroke="none" /><line stroke="#e1ed5e" stroke-width="0.3" x1="15.003131293944662" x2="10.003315487706104" y1="100.72959589197737" y2="100.7725132973878" /><path d="M 14.003168132696942 100.73817937305945 a86.0,86.0 0 0,1 10.791469493833604,-42.45332614584628" fill="none" id="id10" stroke="none" /><text fill="#e1ed5e" style="font-size:6.75px; font-family:Arial;" text-anchor="middle"><textPath startOffset="22.145653131862435" xlink:href="#id10">October</textPath></text><path d="M 79.00077361379809 100.18025310272382 l -4.541731529277836 0.03898530283138712 a25.541898847164394,25.541898847164394 0 0,0 0.0,-0.43847681111040765 l 4.541731529277836 0.038985302831385446" fill="#ff0000" stroke="none" /><path d="M 79.00077361379809 99.81974689727619 l -19.902040340227288 -0.17083508010645912 a40.90277353357138,40.90277353357138 0 0,0 0.012053791038894252,-0.7020728983616773 l 19.896175117589728 0.5124548944371888" fill="#ffdd14" stroke="none" /><path d="M 79.01933749520258 99.09900007780938 l -20.003972431553 -0.8590566480067707 a41.022409729271274,41.022409729271274 0 0,0 0.03625289148745712,-0.7032964098188218 l 19.986277950608972 1.2023248512023046" fill="#ffde14" stroke="none" /><path d="M 79.03789590574601 98.7389718711861 l -20.7823422731365 -1.2502141040434627 a41.8199132001972,41.8199132001972 0 0,0 0.04925995223779719,-0.7162288944641081 l 20.757818359733637 1.6067864226618958" fill="#ffe915" stroke="none" /><path d="M 79.06263194458094 98.37931529534042 l -20.596428721104193 -1.5942938439325658 a41.65804078135986,41.65804078135986 0 0,0 0.061309482193405304,-0.7125091169633341 l 20.566025616213047 1.9476240082715806" fill="#ffe715" stroke="none" /><path d="M 79.13060592940154 97.66154086499901 l -42.735279655153455 -4.788577222623209 a64.00272780907275,64.00272780907275 0 0,0 0.13171735093325876,-1.0908086179531125 l 42.64678021796053 5.521479517499758" fill="#33ff4f" stroke="none" /><path d="M 79.17382384314186 97.30363454192245 l -62.4785284705744 -8.089096374232668 a84.0,84.0 0 0,0 0.1974219337791685,-1.428446767199732 l 62.33046202024003 9.160431449632467" fill="#4dd2ff" stroke="none" /><path d="M 79.22317932658666 96.9465228501225 l -20.367668447849706 -2.9933458626503353 a41.58645276522836,41.58645276522836 0 0,0 0.10986449269891846,-0.7054088545963749 l 20.31328246301252 3.3425428991781603" fill="#ffe615" stroke="none" /><path d="M 79.2786578344484 96.59031103205396 l -17.4885227328119 -2.877729760520794 a38.72370604446671,38.72370604446671 0 0,0 0.1135622144821691,-0.6549966751490254 l 17.4365457008375 3.177519468590412" fill="#ffc011" stroke="none" /><path d="M 79.34024301695615 96.23510406497455 l -20.10880786743354 -3.6644946530805758 a41.4399773706287,41.4399773706287 0 0,0 0.13354271030542197,-0.698751890096053 l 20.042938864845958 4.009149108209943" fill="#ffe415" stroke="none" /><path d="M 79.48165901384962 95.52812308129327 l -25.31981817211716 -5.518336523706702 a46.914189747278414,46.914189747278414 0 0,0 0.1782496562217011,-0.7854008745816042 l 25.221357654337798 5.952171732227314" fill="#d4ff1c" stroke="none" /><path d="M 79.56144815229197 95.17655741523228 l -33.84355797118609 -7.98698752996924 a55.773242384812455,55.773242384812455 0 0,0 0.2279066611069901,-0.9299369506553209 l 33.7014637835628 8.566780305232678" fill="#6cff28" stroke="none" /><path d="M 79.64726062577567 94.8264132398404 l -25.676556609147067 -6.526880282651601 a47.49312600518859,47.49312600518859 0 0,0 0.20763659794014058,-0.7884299825566017 l 25.5607305304022 6.966690769580987" fill="#cdff1d" stroke="none" /><path d="M 79.73907114497095 94.47779374421319 l -21.64309908571802 -5.898922898399097 a43.432588557620036,43.432588557620036 0 0,0 0.20223352391754004,-0.7176554320892767 l 21.538647069725897 6.2695862543913865" fill="#fffe18" stroke="none" /><path d="M 79.94057633289273 93.78553927170692 l -19.468125168489163 -6.0312749419344005 a41.380975810818455,41.380975810818455 0 0,0 0.21603881163969177,-0.6767385004525014 l 19.361721641072215 6.364582476078294" fill="#ffe315" stroke="none" /><path d="M 80.05021161711548 93.44210830539832 l -10.690434620074388 -3.514158198631051 a32.2532084407555,32.2532084407555 0 0,0 0.17741503695107194,-0.5244960321597066 l 10.62853416155095 3.697155905264919" fill="#ff6509" stroke="none" /><path d="M 80.16572619554312 93.10060997987247 l -9.634308586297307 -3.3513126402536657 a31.200548923892576,31.200548923892576 0 0,0 0.18030920533043965,-0.5043569381613517 l 9.575359210922922 3.5162045347959388" fill="#ff5507" stroke="none" /><path d="M 80.41425534168474 92.42381321644754 l -28.51928062816907 -11.031870410902407 a51.57861233462375,51.57861233462375 0 0,0 0.3265204317701485,-0.8230447869936842 l 28.32570152143279 11.519816215109675" fill="#9cff22" stroke="none" /><path d="M 80.5471966667186 92.08871423366112 l -9.455427369006465 -3.845439995329117 a31.207473511512696,31.207473511512696 0 0,0 0.20607952539805904,-0.4945158403383005 l 9.388021999071928 4.007188345108681" fill="#ff5507" stroke="none" /><path d="M 80.68587082218212 91.75594674310238 l -18.74360116875866 -8.000528775522708 a41.37967235903114,41.37967235903114 0 0,0 0.2844677458039387,-0.6509178724016724 l 18.603499540937744 8.321108717700247" fill="#ffe315" stroke="none" /><path d="M 80.9802524753101 91.09779779509293 l -38.98188508715927 -18.245490531557476 a64.04050754447076,64.04050754447076 0 0,0 0.47457291927118295,-0.991674876898493 l 38.66293290992819 18.911977910521056" fill="#33ff50" stroke="none" /><path d="M 81.29705330413844 90.45014215332179 l -18.206031442163315 -9.296129377478533 a41.44205474691472,41.44205474691472 0 0,0 0.32895505387664153,-0.6308146901581351 l 18.043768319311734 9.607290310741154" fill="#ffe415" stroke="none" /><line stroke="#e1ed5e" stroke-width="0.3" x1="26.387840678322718" x2="22.05771365940052" y1="57.49999999999999" y2="54.99999999999999" /><path d="M 25.521815274538284 56.99999999999999 a86.0,86.0 0 0,1 29.574782752854787,-30.34633250058573" fill="none" id="id11" stroke="none" /><text fill="#e1ed5e" style="font-size:6.75px; font-family:Arial;" text-anchor="middle"><textPath startOffset="21.40746469413373" xlink:href="#id11">November</textPath></text><path d="M 81.81346652052679 89.5 l -12.738090099109382 -7.354339747682511 a35.70867949536502,35.70867949536502 0 0,0 0.3110502979167593,-0.5282314079530664 l 12.609966091062844 7.57192232392915" fill="#ff960d" stroke="none" /><path d="M 81.99639281039701 89.18935116829357 l -6.522819519194053 -3.9167657054487246 a28.608431380472467,28.608431380472467 0 0,0 0.2564296796421211,-0.4188586102568183 l 6.454621875096539 4.028161431830086" fill="#ff2f04" stroke="none" /><path d="M 82.18462484594161 88.88188828441811 l -39.14704833457187 -24.430653463949366 a67.14486127387195,67.14486127387195 0 0,0 0.6186353692727683,-0.9725975531004503 l 38.72189527367321 25.099064691728486" fill="#37ff76" stroke="none" /><path d="M 82.576782715395 88.27688183743585 l -12.138380764659342 -8.167244297184538 a35.6302483573501,35.6302483573501 0 0,0 0.3458004902403463,-0.5045332496335178 l 11.99639053760368 8.374412281888091" fill="#ff950d" stroke="none" /><path d="M 82.98947788004972 87.6856937992154 l -23.931982906424285 -17.32491004235635 a50.54475103650603,50.54475103650603 0 0,0 0.5148295317784439,-0.6984651357319109 l 23.631051355062024 17.733181487357125" fill="#a8ff21" stroke="none" /><path d="M 83.2033758604659 87.39550010848427 l -16.306309812215883 -12.236558879431946 a41.38698390890062,41.38698390890062 0 0,0 0.4313075996062869,-0.5645954930445746 l 16.09385023525529 12.514675285717406" fill="#ffe315" stroke="none" /><path d="M 83.64595745247003 86.82634096563983 l -24.98045138760672 -20.122483364484296 a53.07705236274882,53.07705236274882 0 0,0 0.5776632925211447,-0.7046552901382852 l 24.631341275846946 20.548340936321072" fill="#8bff24" stroke="none" /><path d="M 84.10781606972428 86.27271002978789 l -28.617166947304842 -24.71882722570579 a58.81484713051489,58.81484713051489 0 0,0 0.6665372805728222,-0.7583970707308912 l 28.188618602773424 25.20643657424798" fill="#4bff2c" stroke="none" /><path d="M 84.58840730492382 85.73525988315684 l -17.94474222779318 -16.609385506599367 a45.451696475475416,45.451696475475416 0 0,0 0.5349105538430197,-0.5680564714284994 l 17.656975840213892 16.914983437972374" fill="#e6ff1a" stroke="none" /><path d="M 84.83555147118756 85.47280134310135 l -14.721161743954944 -14.102539944557913 a41.38612851866519,41.38612851866519 0 0,0 0.49587124688406425,-0.5088075831756148 l 14.476903695920077 14.353170219801259" fill="#ffe315" stroke="none" /><path d="M 85.08716467003674 85.21462403516908 l -14.491843890270028 -14.367982720949705 a41.40716704516984,41.40716704516984 0 0,0 0.5047890156233926,-0.5004746055173629 l 14.24306295451666 14.61463733669574" fill="#ffe415" stroke="none" /><path d="M 85.34317274990677 84.96080404539775 l -24.182048545636107 -24.81291213002544 a55.64754075307315,55.64754075307315 0 0,0 0.689837426283663,-0.6608486496258559 l 23.75253863348714 25.224372909956863" fill="#6eff28" stroke="none" /><path d="M 85.60350026404147 84.71141617570332 l -13.975577838285457 -14.84157935556577 a41.38600632006013,41.38600632006013 0 0,0 0.521405007452404,-0.4826046907731661 l 13.7187430595191 15.079301792471302" fill="#ffe315" stroke="none" /><path d="M 86.13680546590413 84.22622945171909 l -11.787048579858089 -13.411497565214505 a38.855049178472996,38.855049178472996 0 0,0 0.5047835586052908,-0.43602001534663737 l 11.555085541489948 13.611861713025853" fill="#ffc112" stroke="none" /><path d="M 86.40962598614128 83.9905735841838 l -9.607174036749099 -11.31722685839494 a35.84511423791551,35.84511423791551 0 0,0 0.4725165531406379,-0.3941901142634913 l 9.411483149446552 11.480479156570313" fill="#ff980e" stroke="none" /><line stroke="#e1ed5e" stroke-width="0.3" x1="56.869717070023135" x2="54.33264160355391" y1="26.7553504044142" y2="22.446841604673864" /><path d="M 56.362301976729285 25.89364864446614 a86.0,86.0 0 0,1 42.16139366436587,-11.88097634709845" fill="none" id="id12" stroke="none" /><text fill="#e1ed5e" style="font-size:6.75px; font-family:Arial;" text-anchor="middle"><textPath startOffset="22.145653131862474" xlink:href="#id12">December</textPath></text></svg>