<?xml version="1.0" encoding="utf-8" ?>
<svg baseProfile="full" height="200mm" version="1.1" viewBox="0,0,200,200" width="200mm" xmlns="http://www.w3.org/2000/svg" xmlns:ev="http://www.w3.org/2001/xml-events" xmlns:xlink="http://www.w3.org/1999/xlink"><defs /><rect fill="#1a1a1a" height="200" width="200" x="0" y="0" /><text alignment-baseline="middle" fill="#e1ed5e" style="dominant-baseline: central; font-size:9.0px; font-family:Arial;" text-anchor="middle" x="100.0" y="100.0">2025</text><line stroke="#e1ed5e" stroke-width="0.3" x1="100.0" x2="100.0" y1="15.0" y2="10.0" /><path d="M 100.0 14.0 a86.0,86.0 0 0,1 42.46469731375804,11.215312516191453" fill="none" id="id13" stroke="none" /><text fill="#e1ed5e" style="font-size:6.75px; font-family:Arial;" text-anchor="middle"><textPath startOffset="22.20632615414155" xlink:href="#id13">January</textPath></text><path d="M 106.74666289553966 80.11325718540242 l 5.291887949645122 -15.59858796677625 a37.471794821113335,37.471794821113335 0 0,0 0.6090379958330764,0.21248139797163193 l -5.559607949541472 15.505185715632411" fill="red" stroke="none" /><line stroke="#e1ed5e" stroke-width="0.3" x1="143.23703022742887" x2="145.7803849466894" y1="26.81831364943548" y2="22.513508569990506" /><path d="M 143.74570117128098 25.957352633546492 a86.0,86.0 0 0,1 28.547481713284135,27.462654790039103" fill="none" id="id14" stroke="none" /><text fill="#e1ed5e" style="font-size:6.75px; font-family:Arial;" text-anchor="middle"><textPath startOffset="19.985693538727396" xlink:href="#id14">February</textPath></text><line stroke="#e1ed5e" stroke-width="0.3" x1="172.23445277983987" x2="176.4835382374775" y1="55.19839476539836" y2="52.563006222186495" /><path d="M 173.08426987136738 54.67131705675599 a86.0,86.0 0 0,1 12.851231095245387,41.99856678651699" fill="none" id="id15" stroke="none" /><text fill="#e1ed5e" style="font-size:6.75px; font-family:Arial;" text-anchor="middle"><textPath startOffset="22.20632615414155" xlink:href="#id15">March</textPath></text><path d="M 118.73160827565052 90.50648371742162 l 21.90953872143097 -11.104148641954408 a45.56277679840984,45.56277679840984 0 0,0 0.34853351784301495,0.7026223041679782 l -22.097432252227392 10.72536674928748" fill="red" stroke="none" /><path d="M 119.34039704204932 91.81776055985345 l 35.897663836321804 -15.187034692828181 a59.97804884376247,59.97804884376247 0 0,0 0.3940795239676002,0.9542948253949953 l -36.153765047175604 14.566865296979884" fill="red" stroke="none" /><path d="M 119.85752413597 93.16781622104841 l 19.78743838148289 -6.808070060057744 a41.92588195617181,41.92588195617181 0 0,0 0.22892071838571307,0.6844438103942726 l -19.90169639364037 6.4664531467411575" fill="red" stroke="none" /><path d="M 120.45610955862082 95.25157060432595 l 37.946549602206055 -8.808444786588597 a59.95547877091314,59.95547877091314 0 0,0 0.2247063194881448,1.007314369783898 l -38.09255030869623 8.153952247254734" fill="red" stroke="none" /><path d="M 120.6074358757038 95.95851677861258 l 38.23894843336951 -7.499335163729292 a59.967386430037095,59.967386430037095 0 0,0 0.18993749035293547,1.0146536683745813 l -38.3623716476323 6.840003417892148" fill="red" stroke="none" /><path d="M 120.73433829027371 96.67025291283417 l 38.46051863103948 -6.17641123096098 a59.95329959146562,59.95329959146562 0 0,0 0.15486253198595426,1.0203505947149158 l -38.56113705646473 5.513461523853982" fill="red" stroke="none" /><path d="M 120.78858239683441 97.02765380044208 l 24.958194516935908 -3.56851627514236 a46.21201661809633,46.21201661809633 0 0,0 0.10581231669542064,0.7884246633555636 l -25.015922832689164 3.138373269722132" fill="red" stroke="none" /><path d="M 120.83666639777658 97.38593545837742 l 38.65380399765824 -4.849314016943204 a59.95680184414914,59.95680184414914 0 0,0 0.11965563811057428,1.0251364348646554 l -38.7315499887724 4.183233843753696" fill="red" stroke="none" /><line stroke="#e1ed5e" stroke-width="0.3" x1="184.98032266829074" x2="189.97916517819016" y1="98.17113171792111" y2="98.06355123074" /><path d="M 185.9800911702706 98.14961562048488 a86.0,86.0 0 0,1 -9.607161424134198,41.387399972396054" fill="none" id="id16" stroke="none" /><text fill="#e1ed5e" style="font-size:6.75px; font-family:Arial;" text-anchor="middle"><textPath startOffset="21.466115282336823" xlink:href="#id16">April</textPath></text><path d="M 120.13307415673323 105.97154293290107 l 16.827458462009897 4.991085309438227 a38.55204520438455,38.55204520438455 0 0,0 -0.19417972608367728,0.6345905800052168 l -16.73905196342009 -5.280002861995501" fill="red" stroke="none" /><path d="M 119.9155931802556 106.66101706037122 l 36.96306971933648 12.362756950081026 a59.975714008640125,59.975714008640125 0 0,0 -0.3358901851496475,0.9762541047553636 l -36.7447887032436 -12.997183757925692" fill="red" stroke="none" /><line stroke="#e1ed5e" stroke-width="0.3" x1="174.80103733775053" x2="179.2010983576182" y1="140.37084112569926" y2="142.7455964860345" /><path d="M 175.68104954172406 140.8457921977663 a86.0,86.0 0 0,1 -30.038265399797805,32.042727171017184" fill="none" id="id17" stroke="none" /><text fill="#e1ed5e" style="font-size:6.75px; font-family:Arial;" text-anchor="middle"><textPath startOffset="22.206326154141568" xlink:href="#id17">May</textPath></text><path d="M 117.14729908036423 112.12312394758627 l 51.44189724109271 36.36937184275882 a84.0,84.0 0 0,0 -0.8448808304975888,1.1734655781954753 l -50.80823661821952 -37.24947102640542" fill="red" stroke="none" /><path d="M 116.498646956653 112.99209946851258 l 30.664677317197757 24.147346077626214 a60.030971773202275,60.030971773202275 0 0,0 -0.6462822590410332,0.8063364885938129 l -30.244477146101868 -24.67161039979828" fill="red" stroke="none" /><path d="M 116.27256486870786 113.27417163493432 l 36.25436565250986 29.574112997547243 a67.78682708260499,67.78682708260499 0 0,0 -0.745345215614199,0.8978163270953319 l -35.739924437002124 -30.193790581756343" fill="red" stroke="none" /><line stroke="#e1ed5e" stroke-width="0.3" x1="143.8653032363475" x2="146.44561519142675" y1="172.8068346515853" y2="177.08958963109032" /><path d="M 144.38136562736335 173.6633856474863 a86.0,86.0 0 0,1 -40.68145358897372,12.25698825130547" fill="none" id="id18" stroke="none" /><text fill="#e1ed5e" style="font-size:6.75px; font-family:Arial;" text-anchor="middle"><textPath startOffset="21.466115282336833" xlink:href="#id18">June</textPath></text><line stroke="#e1ed5e" stroke-width="0.3" x1="102.19456741930631" x2="102.32365962044197" y1="184.97166512339345" y2="189.96999836594603" /><path d="M 102.22038585953345 185.97133177190398 a86.0,86.0 0 0,1 -42.740103519485714,-10.115201625700543" fill="none" id="id19" stroke="none" /><text fill="#e1ed5e" style="font-size:6.75px; font-family:Arial;" text-anchor="middle"><textPath startOffset="22.20632615414155" xlink:href="#id19">July</textPath></text><line stroke="#e1ed5e" stroke-width="0.3" x1="58.666819895761336" x2="56.23545636021788" y1="174.27360380694188" y2="178.64263932499728" /><path d="M 58.180547188652646 175.14741091055294 a86.0,86.0 0 0,1 -31.652253787137756,-30.449443065178592" fill="none" id="id20" stroke="none" /><text fill="#e1ed5e" style="font-size:6.75px; font-family:Arial;" text-anchor="middle"><textPath startOffset="22.20632615414155" xlink:href="#id20">August</textPath></text><line stroke="#e1ed5e" stroke-width="0.3" x1="26.63291911575756" x2="22.317208475507996" y1="142.92168965132927" y2="145.44649492493687" /><path d="M 25.769776987707644 143.4266507060508 a86.0,86.0 0 0,1 -11.730757126820373,-40.83630448921669" fill="none" id="id21" stroke="none" /><text fill="#e1ed5e" style="font-size:6.75px; font-family:Arial;" text-anchor="middle"><textPath startOffset="21.46611528233685" xlink:href="#id21">September</textPath></text><line stroke="#e1ed5e" stroke-width="0.3" x1="15.007084014347285" x2="10.007500721073583" y1="101.09737516637583" y2="101.16192664675087" /><path d="M 14.007167355692545 101.11028546245083 a86.0,86.0 0 0,1 10.666146001902534,-42.60595125391555" fill="none" id="id22" stroke="none" /><text fill="#e1ed5e" style="font-size:6.75px; font-family:Arial;" text-anchor="middle"><textPath startOffset="22.20632615414155" xlink:href="#id22">October</textPath></text><line stroke="#e1ed5e" stroke-width="0.3" x1="26.266209847984243" x2="21.928928074336255" y1="57.711370442889674" y2="55.22380399835377" /><path d="M 25.398753493254645 57.213857153982495 a86.0,86.0 0 0,1 29.58750427330803,-30.492523968695096" fill="none" id="id23" stroke="none" /><text fill="#e1ed5e" style="font-size:6.75px; font-family:Arial;" text-anchor="middle"><textPath startOffset="21.46611528233685" xlink:href="#id23">November</textPath></text><line stroke="#e1ed5e" stroke-width="0.3" x1="56.762969772571076" x2="54.21961505331055" y1="26.818313649435495" y2="22.513508569990535" /><path d="M 56.25429882871897 25.957352633546506 a86.0,86.0 0 0,1 42.265352541879196,-11.944610805530505" fill="none" id="id24" stroke="none" /><text fill="#e1ed5e" style="font-size:6.75px; font-family:Arial;" text-anchor="middle"><textPath startOffset="22.20632615414155" xlink:href="#id24">December</textPath></text></svg>