<?xml version="1.0" encoding="utf-8" ?>
<svg baseProfile="full" height="200mm" version="1.1" viewBox="0,0,200,200" width="200mm" xmlns="http://www.w3.org/2000/svg" xmlns:ev="http://www.w3.org/2001/xml-events" xmlns:xlink="http://www.w3.org/1999/xlink"><defs /><rect fill="#1a1a1a" height="200" width="200" x="0" y="0" /><text alignment-baseline="middle" fill="#e1ed5e" style="dominant-baseline: central; font-size:9.0px; font-family:Arial;" text-anchor="middle" x="100.0" y="100.0">2025</text><line stroke="#e1ed5e" stroke-width="0.3" x1="100.0" x2="100.0" y1="15.0" y2="10.0" /><path d="M 100.0 14.0 a86.0,86.0 0 0,1 42.46469731375804,11.215312516191453" fill="none" id="id13" stroke="none" /><text fill="#e1ed5e" style="font-size:6.75px; font-family:Arial;" text-anchor="middle"><textPath startOffset="22.20632615414155" xlink:href="#id13">January</textPath></text><path d="M 106.74666289553966 80.11325718540242 l 4.278388355971159 -12.61115461281125 a34.31712535019251,34.31712535019251 0 0,0 0.557764402420816,0.19459304801349214 l -4.494834762455248 12.53564071162555" fill="red" stroke="none" /><line stroke="#e1ed5e" stroke-width="0.3" x1="143.23703022742887" x2="145.7803849466894" y1="26.81831364943548" y2="22.513508569990506" /><path d="M 143.74570117128098 25.957352633546492 a86.0,86.0 0 0,1 28.547481713284135,27.462654790039103" fill="none" id="id14" stroke="none" /><text fill="#e1ed5e" style="font-size:6.75px; font-family:Arial;" text-anchor="middle"><textPath startOffset="19.985693538727396" xlink:href="#id14">February</textPath></text><line stroke="#e1ed5e" stroke-width="0.3" x1="172.23445277983987" x2="176.4835382374775" y1="55.19839476539836" y2="52.563006222186495" /><path d="M 173.08426987136738 54.67131705675599 a86.0,86.0 0 0,1 12.851231095245387,41.99856678651699" fill="none" id="id15" stroke="none" /><text fill="#e1ed5e" style="font-size:6.75px; font-family:Arial;" text-anchor="middle"><textPath startOffset="22.20632615414155" xlink:href="#id15">March</textPath></text><path d="M 118.73160827565052 90.50648371742162 l 17.713435401963793 -8.977487940933557 a40.85852671950141,40.85852671950141 0 0,0 0.3125482477601683,0.6300781955319043 l -17.86534366267737 8.671250156902703" fill="red" stroke="none" /><path d="M 119.34039704204932 91.81776055985345 l 29.022562160293976 -12.27842180518646 a52.51299345308544,52.51299345308544 0 0,0 0.3450311549148995,0.8355203092521455 l -29.229615002095073 11.77702692548101" fill="red" stroke="none" /><path d="M 119.85752413597 93.16781622104841 l 15.997758601731249 -5.504192066942808 a37.91816806244288,37.91816806244288 0 0,0 0.20703808405983518,0.6190175190341669 l -16.090133979562854 5.228001444986328" fill="red" stroke="none" /><path d="M 120.45610955862082 95.25157060432595 l 30.67904640313628 -7.121456079145205 a52.49474598870395,52.49474598870395 0 0,0 0.19674434105777489,0.8819663032735342 l -30.79708513119609 6.592311606321708" fill="red" stroke="none" /><path d="M 120.6074358757038 95.95851677861258 l 30.915445164117838 -6.063066441944623 a52.50437309922246,52.50437309922246 0 0,0 0.16629954134578284,0.8883787995827918 l -31.015230429373478 5.530009564899268" fill="red" stroke="none" /><path d="M 120.73433829027371 96.67025291283417 l 31.094580354197774 -4.993508204194883 a52.49298416455677,52.49298416455677 0 0,0 0.13559214412911244,0.8933828158857603 l -31.175928391766185 4.45752627591704" fill="red" stroke="none" /><path d="M 120.78858239683441 97.02765380044208 l 20.17821424478246 -2.88507591712831 a41.38342447077859,41.38342447077859 0 0,0 0.09475622005918488,0.7060439014491569 l -20.22488646389948 2.5373136736144883" fill="red" stroke="none" /><path d="M 120.83666639777658 97.38593545837742 l 31.250847809176054 -3.920575949823135 a52.49581566765045,52.49581566765045 0 0,0 0.1047657668295189,0.8975691108197236 l -31.31370392900916 3.382063100678559" fill="red" stroke="none" /><line stroke="#e1ed5e" stroke-width="0.3" x1="184.98032266829074" x2="189.97916517819016" y1="98.17113171792111" y2="98.06355123074" /><path d="M 185.9800911702706 98.14961562048488 a86.0,86.0 0 0,1 -9.607161424134198,41.387399972396054" fill="none" id="id16" stroke="none" /><text fill="#e1ed5e" style="font-size:6.75px; font-family:Arial;" text-anchor="middle"><textPath startOffset="21.466115282336823" xlink:href="#id16">April</textPath></text><path d="M 120.13307415673323 105.97154293290107 l 13.604672477859157 4.035195279029146 a35.190486748865155,35.190486748865155 0 0,0 -0.17724816002417318,0.5792572424689016 l -13.533197545328852 -4.268779494050105" fill="red" stroke="none" /><path d="M 119.9155931802556 106.66101706037122 l 29.883922069582837 9.995048248607608 a52.51110578435632,52.51110578435632 0 0,0 -0.2940851198833454,0.8547490165742059 l -29.707446118756263 -10.507969968271114" fill="red" stroke="none" /><line stroke="#e1ed5e" stroke-width="0.3" x1="174.80103733775053" x2="179.2010983576182" y1="140.37084112569926" y2="142.7455964860345" /><path d="M 175.68104954172406 140.8457921977663 a86.0,86.0 0 0,1 -30.038265399797805,32.042727171017184" fill="none" id="id17" stroke="none" /><text fill="#e1ed5e" style="font-size:6.75px; font-family:Arial;" text-anchor="middle"><textPath startOffset="22.206326154141568" xlink:href="#id17">May</textPath></text><path d="M 117.14729908036423 112.12312394758627 l 41.58977216819477 29.403928897715886 a71.9342731726318,71.9342731726318 0 0,0 -0.7235224816587331,1.004909445959448 l -41.07746989416044 -30.115471949126466" fill="red" stroke="none" /><path d="M 116.498646956653 112.99209946851258 l 24.791794463885022 19.52265907161734 a52.55578061094548,52.55578061094548 0 0,0 -0.5658057435290276,0.7059296616626467 l -24.45207080830114 -19.94651656685824" fill="red" stroke="none" /><path d="M 116.27256486870786 113.27417163493432 l 29.31094863246693 23.910094448497645 a58.82623859533476,58.82623859533476 0 0,0 -0.6468197048990295,0.7791360024586574 l -28.895032927674357 -24.411091708070074" fill="red" stroke="none" /><path d="M 116.0416608686014 113.55231037782055 l 24.065399273006665 20.330922277027184 a52.50380679860372,52.50380679860372 0 0,0 -0.5891864451495066,0.68535694403314 l -23.71187031828638 -20.742156320221852" fill="red" stroke="none" /><path d="M 115.80600337817218 113.82643327865902 l 14.244559966650398 12.460547631840683 a39.92545206669763,39.92545206669763 0 0,0 -0.4569394799057256,0.5133763496562508 l -14.027961637096334 -12.7038981512378" fill="red" stroke="none" /><path d="M 115.56566222782051 114.09645910891815 l 23.346277970846348 21.142682395694802 a52.49701119117889,52.49701119117889 0 0,0 -0.6123491171794311,0.6645840262788186 l -22.978882445671196 -21.541417676774955" fill="red" stroke="none" /><path d="M 115.32070863581623 114.36230785411682 l 22.993021318942194 21.554672080044117 a52.516391256797846,52.516391256797846 0 0,0 -0.6239283601804806,0.6541863912165219 l -22.61858640738275 -21.947265587843148" fill="red" stroke="none" /><path d="M 114.81725581225074 114.88116024355365 l 22.22634988621691 22.32220854367789 a52.50066068405519,52.50066068405519 0 0,0 -0.6458832470489488,0.6321326976409679 l -21.838816686792164 -22.70149134424143" fill="red" stroke="none" /><path d="M 114.55890576462653 115.13401014063108 l 30.580921686245894 31.788926062972042 a65.11041363915564,65.11041363915564 0 0,0 -0.8143891652856283,0.7700557873862952 l -30.02919668656946 -32.31061648710426" fill="red" stroke="none" /><path d="M 114.29624159901734 115.38237550388516 l 30.01506086512591 32.2954067194185 a65.08964928313532,65.08964928313532 0 0,0 -0.8272598437482206,0.7556822531224202 l -29.454701471910827 -32.807281739127504" fill="red" stroke="none" /><path d="M 113.75828350139079 115.86535959552629 l 20.651503227234056 23.81427340519035 a52.52148796236648,52.52148796236648 0 0,0 -0.6881178361900024,0.5864289483987637 l -20.238519914467005 -24.16622674381206" fill="red" stroke="none" /><path d="M 113.48314897796784 116.09983520530334 l 32.34420571679837 38.62127331959278 a71.37608952943114,71.37608952943114 0 0,0 -0.9487237473967968,0.7807350553236845 l -31.674611840856883 -39.17230349377365" fill="red" stroke="none" /><path d="M 112.63410532772338 116.77436683061366 l 18.958899454496922 25.171828626171468 a52.5128676085035,52.5128676085035 0 0,0 -0.726715646354822,0.5376068618558995 l -18.52279883772354 -25.494445436767133" fill="red" stroke="none" /><path d="M 112.34349029814194 116.9893568818739 l 29.611616961378463 40.75689422155885 a71.37829180961512,71.37829180961512 0 0,0 -1.0002228887808342,0.7136324735803077 l -28.905666744748743 -41.26057095698338" fill="red" stroke="none" /><path d="M 112.04921762599082 117.19931262002967 l 28.91202088429293 41.26964099255282 a71.38936613282596,71.38936613282596 0 0,0 -1.0125157720856433,0.6964175806522385 l -28.197348227584403 -41.76119936257016" fill="red" stroke="none" /><path d="M 111.45004920935366 117.60387380957326 l 17.18994623558665 26.428676313234632 a52.52727681313578,52.52727681313578 0 0,0 -0.7621912920895613,0.4864665444444101 l -16.732473141450157 -26.720657286502853" fill="red" stroke="none" /><line stroke="#e1ed5e" stroke-width="0.3" x1="143.8653032363475" x2="146.44561519142675" y1="172.8068346515853" y2="177.08958963109032" /><path d="M 144.38136562736335 173.6633856474863 a86.0,86.0 0 0,1 -40.68145358897372,12.25698825130547" fill="none" id="id18" stroke="none" /><text fill="#e1ed5e" style="font-size:6.75px; font-family:Arial;" text-anchor="middle"><textPath startOffset="21.466115282336833" xlink:href="#id18">June</textPath></text><path d="M 110.8373102113329 117.98757091392108 l 32.51193063399873 53.96271274176323 a84.0,84.0 0 0,0 -1.2449285158864716,0.735525710825002 l -31.578234247083873 -54.514357024881974" fill="red" stroke="none" /><path d="M 109.89434966115114 118.52300852407294 l 14.839315832271867 27.780378000164898 a52.49531228932268,52.49531228932268 0 0,0 -0.8007012429039386,0.4188890468095406 l -14.358923686841432 -28.031696465919158" fill="red" stroke="none" /><path d="M 107.59598834532513 119.57807347666477 l 11.736279381519783 30.249353952138694 a53.44631979505311,53.44631979505311 0 0,0 -0.8605615387370029,0.3253907386265787 l -11.213847622022504 -30.4468929408719" fill="red" stroke="none" /><path d="M 107.2578585660854 119.70592522655815 l 17.408161173102524 47.26517047494013 a71.36904223284245,71.36904223284245 0 0,0 -1.1564518594488877,0.41466249221200197 l -16.591989753023903 -47.55782050819209" fill="red" stroke="none" /><path d="M 106.57524785965236 119.94407469862006 l 19.715597351604718 59.80144850830147 a83.96759502015013,83.96759502015013 0 0,0 -1.3765833652136161,0.44073852247151174 l -18.68329264130016 -60.131959877432685" fill="red" stroke="none" /><path d="M 105.88484417918355 120.15858648285463 l 17.652169748235426 60.467665692586415 a83.99156841300993,83.99156841300993 0 0,0 -1.3913356568045645,0.3932053542892065 l -16.608702923326256 -60.76255984021414" fill="red" stroke="none" /><path d="M 105.53697534728816 120.25689768951611 l 16.60239855732236 60.73949546135598 a83.96765794244108,83.96765794244108 0 0,0 -1.3974999497913445,0.3690924384192827 l -15.55440816471952 -61.01627924907884" fill="red" stroke="none" /><path d="M 105.18746579009965 120.34920634021253 l 7.776496866690763 30.505365384060976 a52.480966006981376,52.480966006981376 0 0,0 -0.8772986062025718,0.21561865283554862 l -7.250244975744979 -30.634705295210555" fill="red" stroke="none" /><line stroke="#e1ed5e" stroke-width="0.3" x1="102.19456741930631" x2="102.32365962044197" y1="184.97166512339345" y2="189.96999836594603" /><path d="M 102.22038585953345 185.97133177190398 a86.0,86.0 0 0,1 -42.740103519485714,-10.115201625700543" fill="none" id="id19" stroke="none" /><text fill="#e1ed5e" style="font-size:6.75px; font-family:Arial;" text-anchor="middle"><textPath startOffset="22.20632615414155" xlink:href="#id19">July</textPath></text><line stroke="#e1ed5e" stroke-width="0.3" x1="58.666819895761336" x2="56.23545636021788" y1="174.27360380694188" y2="178.64263932499728" /><path d="M 58.180547188652646 175.14741091055294 a86.0,86.0 0 0,1 -31.652253787137756,-30.449443065178592" fill="none" id="id20" stroke="none" /><text fill="#e1ed5e" style="font-size:6.75px; font-family:Arial;" text-anchor="middle"><textPath startOffset="22.20632615414155" xlink:href="#id20">August</textPath></text><line stroke="#e1ed5e" stroke-width="0.3" x1="26.63291911575756" x2="22.317208475507996" y1="142.92168965132927" y2="145.44649492493687" /><path d="M 25.769776987707644 143.4266507060508 a86.0,86.0 0 0,1 -11.730757126820373,-40.83630448921669" fill="none" id="id21" stroke="none" /><text fill="#e1ed5e" style="font-size:6.75px; font-family:Arial;" text-anchor="middle"><textPath startOffset="21.46611528233685" xlink:href="#id21">September</textPath></text><line stroke="#e1ed5e" stroke-width="0.3" x1="15.007084014347285" x2="10.007500721073583" y1="101.09737516637583" y2="101.16192664675087" /><path d="M 14.007167355692545 101.11028546245083 a86.0,86.0 0 0,1 10.666146001902534,-42.60595125391555" fill="none" id="id22" stroke="none" /><text fill="#e1ed5e" style="font-size:6.75px; font-family:Arial;" text-anchor="middle"><textPath startOffset="22.20632615414155" xlink:href="#id22">October</textPath></text><line stroke="#e1ed5e" stroke-width="0.3" x1="26.266209847984243" x2="21.928928074336255" y1="57.711370442889674" y2="55.22380399835377" /><path d="M 25.398753493254645 57.213857153982495 a86.0,86.0 0 0,1 29.58750427330803,-30.492523968695096" fill="none" id="id23" stroke="none" /><text fill="#e1ed5e" style="font-size:6.75px; font-family:Arial;" text-anchor="middle"><textPath startOffset="21.46611528233685" xlink:href="#id23">November</textPath></text><line stroke="#e1ed5e" stroke-width="0.3" x1="56.762969772571076" x2="54.21961505331055" y1="26.818313649435495" y2="22.513508569990535" /><path d="M 56.25429882871897 25.957352633546506 a86.0,86.0 0 0,1 42.265352541879196,-11.944610805530505" fill="none" id="id24" stroke="none" /><text fill="#e1ed5e" style="font-size:6.75px; font-family:Arial;" text-anchor="middle"><textPath startOffset="22.20632615414155" xlink:href="#id24">December</textPath></text></svg>