<?xml version="1.0" encoding="utf-8" ?>
<svg baseProfile="full" height="200mm" version="1.1" viewBox="0,0,200,200" width="200mm" xmlns="http://www.w3.org/2000/svg" xmlns:ev="http://www.w3.org/2001/xml-events" xmlns:xlink="http://www.w3.org/1999/xlink"><defs /><rect fill="#1a1a1a" height="200" width="200" x="0" y="0" /><text alignment-baseline="middle" fill="#e1ed5e" style="dominant-baseline: central; font-size:9.0px; font-family:Arial;" text-anchor="middle" x="100.0" y="100.0">2025</text><line stroke="#e1ed5e" stroke-width="0.3" x1="100.0" x2="100.0" y1="15.0" y2="10.0" /><path d="M 100.0 14.0 a86.0,86.0 0 0,1 42.46469731375804,11.215312516191453" fill="none" id="id13" stroke="none" /><text fill="#e1ed5e" style="font-size:6.75px; font-family:Arial;" text-anchor="middle"><textPath startOffset="22.20632615414155" xlink:href="#id13">January</textPath></text><path d="M 106.74666289553966 80.11325718540242 l 4.271583584047927 -12.59109658542133 a34.29594447712972,34.29594447712972 0 0,0 0.5574201446519598,0.19447294323761669 l -4.48768573276316 12.515702789011504" fill="red" stroke="none" /><line stroke="#e1ed5e" stroke-width="0.3" x1="143.23703022742887" x2="145.7803849466894" y1="26.81831364943548" y2="22.513508569990506" /><path d="M 143.74570117128098 25.957352633546492 a86.0,86.0 0 0,1 28.547481713284135,27.462654790039103" fill="none" id="id14" stroke="none" /><text fill="#e1ed5e" style="font-size:6.75px; font-family:Arial;" text-anchor="middle"><textPath startOffset="19.985693538727396" xlink:href="#id14">February</textPath></text><line stroke="#e1ed5e" stroke-width="0.3" x1="172.23445277983987" x2="176.4835382374775" y1="55.19839476539836" y2="52.563006222186495" /><path d="M 173.08426987136738 54.67131705675599 a86.0,86.0 0 0,1 12.851231095245387,41.99856678651699" fill="none" id="id15" stroke="none" /><text fill="#e1ed5e" style="font-size:6.75px; font-family:Arial;" text-anchor="middle"><textPath startOffset="22.20632615414155" xlink:href="#id15">March</textPath></text><path d="M 118.73160827565052 90.50648371742162 l 17.68526220265172 -8.963209256345158 a40.826941754833825,40.826941754833825 0 0,0 0.3123066378404032,0.6295911246768948 l -17.83692885344553 8.657458543169312" fill="red" stroke="none" /><path d="M 119.34039704204932 91.81776055985345 l 28.97640180744686 -12.258892988957113 a52.462872072036134,52.462872072036134 0 0,0 0.3447018376002272,0.8347228412534514 l -29.183125331933283 11.758295577250358" fill="red" stroke="none" /><path d="M 119.85752413597 93.16781622104841 l 15.972314184462366 -5.495437655580194 a37.8912597349501,37.8912597349501 0 0,0 0.20689116112410194,0.6185782381570287 l -16.064542639358237 5.2196863145008505" fill="red" stroke="none" /><path d="M 120.45610955862082 95.25157060432595 l 30.630251413942695 -7.110129411169341 a52.444653630226455,52.444653630226455 0 0,0 0.19655660059203753,0.8811246995778395 l -30.74810240153677 6.581826542041537" fill="red" stroke="none" /><path d="M 120.6074358757038 95.95851677861258 l 30.86627418295775 -6.053423141509951 a52.45426542883639,52.45426542883639 0 0,0 0.16614083299234034,0.8875309732125322 l -30.96590073985995 5.521214090834856" fill="red" stroke="none" /><path d="M 120.73433829027371 96.67025291283417 l 31.04512445871704 -4.98556603494816 a52.442894608258634,52.442894608258634 0 0,0 0.135462760165807,0.8925303372247678 l -31.12634311232215 4.45043658533131" fill="red" stroke="none" /><path d="M 120.78858239683441 97.02765380044208 l 20.146120817461355 -2.880487207089899 a41.3510046568212,41.3510046568212 0 0,0 0.09468198794657194,0.7054907859875088 l -20.192718804465763 2.533278079037726" fill="red" stroke="none" /><path d="M 120.83666639777658 97.38593545837742 l 31.201143370481933 -3.914340278134049 a52.44572160784979,52.44572160784979 0 0,0 0.10466579424081114,0.8967126067319067 l -31.263899517726333 3.376683933077289" fill="red" stroke="none" /><line stroke="#e1ed5e" stroke-width="0.3" x1="184.98032266829074" x2="189.97916517819016" y1="98.17113171792111" y2="98.06355123074" /><path d="M 185.9800911702706 98.14961562048488 a86.0,86.0 0 0,1 -9.607161424134198,41.387399972396054" fill="none" id="id16" stroke="none" /><text fill="#e1ed5e" style="font-size:6.75px; font-family:Arial;" text-anchor="middle"><textPath startOffset="21.466115282336823" xlink:href="#id16">April</textPath></text><path d="M 120.13307415673323 105.97154293290107 l 13.583034261409527 4.028777305424397 a35.16791679546883,35.16791679546883 0 0,0 -0.17713447922345338,0.5788857270346223 l -13.51167300967994 -4.261990005011076" fill="red" stroke="none" /><path d="M 119.9155931802556 106.66101706037122 l 29.836391724757707 9.979151135481226 a52.46098740564203,52.46098740564203 0 0,0 -0.29380443507977116,0.8539332151493748 l -29.660196458734706 -10.491257053719902" fill="red" stroke="none" /><line stroke="#e1ed5e" stroke-width="0.3" x1="174.80103733775053" x2="179.2010983576182" y1="140.37084112569926" y2="142.7455964860345" /><path d="M 175.68104954172406 140.8457921977663 a86.0,86.0 0 0,1 -30.038265399797805,32.042727171017184" fill="none" id="id17" stroke="none" /><text fill="#e1ed5e" style="font-size:6.75px; font-family:Arial;" text-anchor="middle"><textPath startOffset="22.206326154141568" xlink:href="#id17">May</textPath></text><path d="M 117.14729908036423 112.12312394758627 l 41.523623681802995 29.357161981496933 a71.85326226778218,71.85326226778218 0 0,0 -0.7227076654614866,1.0037777375273114 l -41.0121362239659 -30.067573324475376" fill="red" stroke="none" /><path d="M 116.498646956653 112.99209946851258 l 24.752363142355055 19.49160830407027 a52.505591176969176,52.505591176969176 0 0,0 -0.5652654134325443,0.7052555167877335 l -24.413179816867654 -19.914791654436254" fill="red" stroke="none" /><path d="M 116.27256486870786 113.27417163493432 l 29.264329601256474 23.872065469861834 a58.76607600490612,58.76607600490612 0 0,0 -0.6461581914329942,0.7783391668743431 l -28.849075409929938 -24.37226589384995" fill="red" stroke="none" /><path d="M 116.0416608686014 113.55231037782055 l 24.02712328222015 20.298585967750583 a52.45370002891816,52.45370002891816 0 0,0 -0.5886241577400964,0.684702876744671 l -23.674156614909275 -20.70916594365678" fill="red" stroke="none" /><path d="M 115.80600337817218 113.82643327865902 l 14.221904009861301 12.440729144686541 a39.895351156227875,39.895351156227875 0 0,0 -0.4565949805033954,0.5129893009257197 l -14.005650179709567 -12.683692615353127" fill="red" stroke="none" /><path d="M 115.56566222782051 114.09645910891815 l 23.309145741691363 21.10905498285202 a52.44691522989939,52.44691522989939 0 0,0 -0.61176477500513,0.663949838257596 l -22.94233455869051 -21.50715607591095" fill="red" stroke="none" /><path d="M 115.32070863581623 114.36230785411682 l 22.956450944099295 21.520389398066452 a52.46626447154553,52.46626447154553 0 0,0 -0.6233328218699622,0.6535619716788742 l -22.58261157085037 -21.912358486327832" fill="red" stroke="none" /><path d="M 114.81725581225074 114.88116024355365 l 22.190998901435325 22.286705095808195 a52.45055891826132,52.45055891826132 0 0,0 -0.645266875926144,0.6315294487683785 l -21.804082073133387 -22.665384647499145" fill="red" stroke="none" /><path d="M 114.55890576462653 115.13401014063108 l 30.53228276430543 31.73836581141352 a65.04025607530689,65.04025607530689 0 0,0 -0.8135116472870804,0.7692260393467564 l -29.981435282627544 -32.2592264875062" fill="red" stroke="none" /><path d="M 114.29624159901734 115.38237550388516 l 29.967321944192285 32.244040910939034 a65.01952474497173,65.01952474497173 0 0,0 -0.8263685927563497,0.7548681164727032 l -29.407853801969072 -32.75510179399832" fill="red" stroke="none" /><path d="M 113.75828350139079 115.86535959552629 l 20.618657034312587 23.77639682981738 a52.47135307080961,52.47135307080961 0 0,0 -0.6874609866902234,0.5858691670050065 l -20.206330571045314 -24.12779038704533" fill="red" stroke="none" /><path d="M 113.48314897796784 116.09983520530334 l 32.29276229356783 38.55984622731918 a71.29596641504543,71.29596641504543 0 0,0 -0.9476587590816024,0.7798586424443148 l -31.62423340594154 -39.10999998862067" fill="red" stroke="none" /><path d="M 112.63410532772338 116.77436683061366 l 18.92874534599407 25.131792860728932 a52.46274642760987,52.46274642760987 0 0,0 -0.7260220288087239,0.5370937401773498 l -18.49333834676678 -25.45389654964605" fill="red" stroke="none" /><path d="M 112.34349029814194 116.9893568818739 l 29.56451971752518 40.69207042661517 a71.29816519250522,71.29816519250522 0 0,0 -0.999100075746198,0.7128313762926298 l -28.859692313930097 -41.19494606475202" fill="red" stroke="none" /><path d="M 112.04921762599082 117.19931262002967 l 28.866036347222398 41.20400167443997 a71.3092219020173,71.3092219020173 0 0,0 -1.0113790860197598,0.6956357576112668 l -28.152500376579756 -41.694778221416335" fill="red" stroke="none" /><path d="M 111.45004920935366 117.60387380957326 l 17.162605645211652 26.386641532943255 a52.477132714418204,52.477132714418204 0 0,0 -0.7614636816419803,0.48600214903106714 l -16.705860161522743 -26.67815811079813" fill="red" stroke="none" /><line stroke="#e1ed5e" stroke-width="0.3" x1="143.8653032363475" x2="146.44561519142675" y1="172.8068346515853" y2="177.08958963109032" /><path d="M 144.38136562736335 173.6633856474863 a86.0,86.0 0 0,1 -40.68145358897372,12.25698825130547" fill="none" id="id18" stroke="none" /><text fill="#e1ed5e" style="font-size:6.75px; font-family:Arial;" text-anchor="middle"><textPath startOffset="21.466115282336833" xlink:href="#id18">June</textPath></text><path d="M 110.8373102113329 117.98757091392108 l 32.46022044447386 53.876885107146094 a83.89979857004678,83.89979857004678 0 0,0 -1.2434434728212174,0.7346483212060493 l -31.528009100624264 -54.42765200064589" fill="red" stroke="none" /><path d="M 109.89434966115114 118.52300852407294 l 14.815713916939789 27.736193339843357 a52.4452190301447,52.4452190301447 0 0,0 -0.7999371797307574,0.41848932506918785 l -14.336085834682535 -27.987112083857262" fill="red" stroke="none" /><path d="M 107.59598834532513 119.57807347666477 l 11.717612842212498 30.201242388310668 a53.39471395949463,53.39471395949463 0 0,0 -0.8597306116043901,0.32507655308463296 l -11.196012009847834 -30.398467191501933" fill="red" stroke="none" /><path d="M 107.2578585660854 119.70592522655815 l 17.380473512112026 47.18999527385167 a71.2889303271741,71.2889303271741 0 0,0 -1.1551537397127156,0.41419703265949864 l -16.565600211769578 -47.48217984755113" fill="red" stroke="none" /><path d="M 106.57524785965236 119.94407469862006 l 19.684239715937842 59.70633437093946 a83.86744513028131,83.86744513028131 0 0,0 -1.3749414857196482,0.44021284450638876 l -18.653576885127254 -60.03632006210555" fill="red" stroke="none" /><path d="M 105.88484417918355 120.15858648285463 l 17.624093991877483 60.371491937533534 a83.89138039348643,83.89138039348643 0 0,0 -1.3896760239797288,0.39273632547528364 l -16.58228679979315 -60.66591705634734" fill="red" stroke="none" /><path d="M 105.53697534728816 120.25689768951611 l 16.575992460876375 60.64288936135811 a83.86750795249444,83.86750795249444 0 0,0 -1.3958331222371214,0.3686522141126525 l -15.529668895827756 -60.91923292477435" fill="red" stroke="none" /><path d="M 105.18746579009965 120.34920634021253 l 7.764128357070615 30.456846634335122 a52.43089556554949,52.43089556554949 0 0,0 -0.8764616031551374,0.21541293785067225 l -7.238713469172267 -30.58598083049982" fill="red" stroke="none" /><path d="M 104.48393922423573 120.51570834832081 l 13.451817672707184 61.54712504496244 a84.0,84.0 0 0,0 -1.415234154282488,0.29657607709383527 l -12.390392056995317 -61.76955710278282" fill="red" stroke="none" /><line stroke="#e1ed5e" stroke-width="0.3" x1="102.19456741930631" x2="102.32365962044197" y1="184.97166512339345" y2="189.96999836594603" /><path d="M 102.22038585953345 185.97133177190398 a86.0,86.0 0 0,1 -42.740103519485714,-10.115201625700543" fill="none" id="id19" stroke="none" /><text fill="#e1ed5e" style="font-size:6.75px; font-family:Arial;" text-anchor="middle"><textPath startOffset="22.20632615414155" xlink:href="#id19">July</textPath></text><line stroke="#e1ed5e" stroke-width="0.3" x1="58.666819895761336" x2="56.23545636021788" y1="174.27360380694188" y2="178.64263932499728" /><path d="M 58.180547188652646 175.14741091055294 a86.0,86.0 0 0,1 -31.652253787137756,-30.449443065178592" fill="none" id="id20" stroke="none" /><text fill="#e1ed5e" style="font-size:6.75px; font-family:Arial;" text-anchor="middle"><textPath startOffset="22.20632615414155" xlink:href="#id20">August</textPath></text><line stroke="#e1ed5e" stroke-width="0.3" x1="26.63291911575756" x2="22.317208475507996" y1="142.92168965132927" y2="145.44649492493687" /><path d="M 25.769776987707644 143.4266507060508 a86.0,86.0 0 0,1 -11.730757126820373,-40.83630448921669" fill="none" id="id21" stroke="none" /><text fill="#e1ed5e" style="font-size:6.75px; font-family:Arial;" text-anchor="middle"><textPath startOffset="21.46611528233685" xlink:href="#id21">September</textPath></text><line stroke="#e1ed5e" stroke-width="0.3" x1="15.007084014347285" x2="10.007500721073583" y1="101.09737516637583" y2="101.16192664675087" /><path d="M 14.007167355692545 101.11028546245083 a86.0,86.0 0 0,1 10.666146001902534,-42.60595125391555" fill="none" id="id22" stroke="none" /><text fill="#e1ed5e" style="font-size:6.75px; font-family:Arial;" text-anchor="middle"><textPath startOffset="22.20632615414155" xlink:href="#id22">October</textPath></text><line stroke="#e1ed5e" stroke-width="0.3" x1="26.266209847984243" x2="21.928928074336255" y1="57.711370442889674" y2="55.22380399835377" /><path d="M 25.398753493254645 57.213857153982495 a86.0,86.0 0 0,1 29.58750427330803,-30.492523968695096" fill="none" id="id23" stroke="none" /><text fill="#e1ed5e" style="font-size:6.75px; font-family:Arial;" text-anchor="middle"><textPath startOffset="21.46611528233685" xlink:href="#id23">November</textPath></text><line stroke="#e1ed5e" stroke-width="0.3" x1="56.762969772571076" x2="54.21961505331055" y1="26.818313649435495" y2="22.513508569990535" /><path d="M 56.25429882871897 25.957352633546506 a86.0,86.0 0 0,1 42.265352541879196,-11.944610805530505" fill="none" id="id24" stroke="none" /><text fill="#e1ed5e" style="font-size:6.75px; font-family:Arial;" text-anchor="middle"><textPath startOffset="22.20632615414155" xlink:href="#id24">December</textPath></text></svg>